ffmpeg started on 2016-11-27 at 23:59:58
Report written to "Output/NVENCh264/results/ffmpeg/Tsintelllhp4500k.log"
Command line:
Tools/ffmpeg/ffmpeg -i Output/NVENCh264/encoded/sintelllhp4500k.mkv -c:v rawvideo -pix_fmt yuv420p Output/NVENCh264/transcoded/sintelllhp4500k.yuv
ffmpeg version N-82227-gdb23fde Copyright (c) 2000-2016 the FFmpeg developers
  built with gcc 5.4.0 (Ubuntu 5.4.0-6ubuntu1~16.04.2) 20160609
  configuration: --prefix=/home/jaroslav/ffmpeg_build --pkg-config-flags=--static --extra-cflags=-I/home/jaroslav/ffmpeg_build/include --extra-ldflags=-L/home/jaroslav/ffmpeg_build/lib --bindir=/home/jaroslav/bin --enable-gpl --enable-libass --enable-libfdk-aac --enable-libfreetype --enable-libmp3lame --enable-libopus --enable-libtheora --enable-libvorbis --enable-libvpx --enable-libx264 --enable-libx265 --enable-nvenc --enable-libmfx --enable-libxvid --enable-libgsm --enable-libopencore-amrnb --enable-version3 --enable-nonfree
  libavutil      55. 35.100 / 55. 35.100
  libavcodec     57. 66.101 / 57. 66.101
  libavformat    57. 57.100 / 57. 57.100
  libavdevice    57.  2.100 / 57.  2.100
  libavfilter     6. 66.100 /  6. 66.100
  libswscale      4.  3.100 /  4.  3.100
  libswresample   2.  4.100 /  2.  4.100
  libpostproc    54.  2.100 / 54.  2.100
Input #0, matroska,webm, from 'Output/NVENCh264/encoded/sintelllhp4500k.mkv':
  Metadata:
    ENCODER         : Lavf57.57.100
  Duration: 00:00:20.83, start: 0.000000, bitrate: 4484 kb/s
    Stream #0:0: Video: h264 (Main), yuv420p(progressive), 4096x1744 [SAR 1:1 DAR 256:109], 24 fps, 24 tbr, 1k tbn, 48 tbc (default)
    Metadata:
      ENCODER         : Lavc57.66.101 h264_nvenc
      DURATION        : 00:00:20.834000000
Output #0, rawvideo, to 'Output/NVENCh264/transcoded/sintelllhp4500k.yuv':
  Metadata:
    encoder         : Lavf57.57.100
    Stream #0:0: Video: rawvideo (I420 / 0x30323449), yuv420p, 4096x1744 [SAR 1:1 DAR 256:109], q=2-31, 200 kb/s, 24 fps, 24 tbn, 24 tbc (default)
    Metadata:
      DURATION        : 00:00:20.834000000
      encoder         : Lavc57.66.101 rawvideo
Stream mapping:
  Stream #0:0 -> #0:0 (h264 (native) -> rawvideo (native))
Press [q] to stop, [?] for help
frame=   19 fps=0.0 q=-0.0 size=  198816kB time=00:00:00.79 bitrate=2057305.2kbits/s speed=1.56x    frame=   39 fps= 39 q=-0.0 size=  408096kB time=00:00:01.62 bitrate=2057306.1kbits/s speed= 1.6x    frame=   60 fps= 39 q=-0.0 size=  627840kB time=00:00:02.50 bitrate=2057306.1kbits/s speed=1.63x    frame=   80 fps= 39 q=-0.0 size=  837120kB time=00:00:03.33 bitrate=2057306.3kbits/s speed=1.64x    frame=  100 fps= 39 q=-0.0 size= 1046400kB time=00:00:04.16 bitrate=2057305.9kbits/s speed=1.64x    frame=  120 fps= 39 q=-0.0 size= 1255680kB time=00:00:05.00 bitrate=2057306.1kbits/s speed=1.64x    frame=  140 fps= 39 q=-0.0 size= 1464960kB time=00:00:05.83 bitrate=2057306.2kbits/s speed=1.64x    frame=  160 fps= 39 q=-0.0 size= 1674240kB time=00:00:06.66 bitrate=2057306.0kbits/s speed=1.64x    frame=  180 fps= 39 q=-0.0 size= 1883520kB time=00:00:07.50 bitrate=2057306.1kbits/s speed=1.64x    frame=  200 fps= 39 q=-0.0 size= 2092800kB time=00:00:08.33 bitrate=2057306.2kbits/s speed=1.64x    frame=  220 fps= 39 q=-0.0 size= 2302080kB time=00:00:09.16 bitrate=2057306.0kbits/s speed=1.64x    frame=  240 fps= 39 q=-0.0 size= 2511360kB time=00:00:10.00 bitrate=2057306.1kbits/s speed=1.64x    frame=  261 fps= 39 q=-0.0 size= 2731104kB time=00:00:10.87 bitrate=2057306.1kbits/s speed=1.65x    frame=  282 fps= 40 q=-0.0 size= 2950848kB time=00:00:11.75 bitrate=2057306.1kbits/s speed=1.65x    frame=  303 fps= 40 q=-0.0 size= 3170592kB time=00:00:12.62 bitrate=2057306.1kbits/s speed=1.65x    frame=  318 fps= 39 q=-0.0 size= 3327552kB time=00:00:13.25 bitrate=2057306.1kbits/s speed=1.62x    frame=  337 fps= 39 q=-0.0 size= 3526368kB time=00:00:14.04 bitrate=2057306.1kbits/s speed=1.62x    frame=  355 fps= 39 q=-0.0 size= 3714720kB time=00:00:14.79 bitrate=2057306.1kbits/s speed=1.61x    frame=  375 fps= 39 q=-0.0 size= 3924000kB time=00:00:15.62 bitrate=2057306.1kbits/s speed=1.61x    frame=  392 fps= 38 q=-0.0 size= 4101888kB time=00:00:16.33 bitrate=2057306.2kbits/s speed= 1.6x    frame=  409 fps= 38 q=-0.0 size= 4279776kB time=00:00:17.04 bitrate=2057306.1kbits/s speed=1.59x    frame=  426 fps= 38 q=-0.0 size= 4457664kB time=00:00:17.75 bitrate=2057306.1kbits/s speed=1.57x    frame=  443 fps= 38 q=-0.0 size= 4635552kB time=00:00:18.45 bitrate=2057306.1kbits/s speed=1.56x    frame=  463 fps= 38 q=-0.0 size= 4844832kB time=00:00:19.29 bitrate=2057306.1kbits/s speed=1.57x    frame=  479 fps= 37 q=-0.0 size= 5012256kB time=00:00:19.95 bitrate=2057306.1kbits/s speed=1.53x    frame=  495 fps= 36 q=-0.0 size= 5179680kB time=00:00:20.62 bitrate=2057306.1kbits/s speed=1.52x    frame=  500 fps= 36 q=-0.0 Lsize= 5232000kB time=00:00:20.83 bitrate=2057306.1kbits/s speed=1.51x    
video:5232000kB audio:0kB subtitle:0kB other streams:0kB global headers:0kB muxing overhead: 0.000000%
